<svg width="374" height="287" viewBox="0 0 374 287" fill="none" xmlns="http://www.w3.org/2000/svg">
<g clip-path="url(#clip0)">
<path d="M24.3087 289.116C24.3087 289.116 21.0112 289.519 29.6168 274.765C38.2223 260.011 57.6854 267.912 61.5458 263.72C65.4867 259.527 63.476 252.997 54.4684 248.401C45.4607 243.806 30.5015 241.951 12.7274 254.125C12.7274 254.125 12.7274 246.95 19.4831 236.791C26.2389 226.633 37.1768 220.828 29.0538 214.378C20.9308 207.928 3.4784 213.33 -12.6872 239.291C-10.5961 217.845 -15.1804 194.464 -21.6949 193.255C-27.6464 192.126 -31.7481 193.9 -34.0804 200.511V295.243L24.3087 289.116Z" fill="#B8F1BA"/>
<path d="M24.3087 289.116C24.3087 289.116 21.0112 289.519 29.6168 274.765C38.2223 260.011 57.6854 267.912 61.5458 263.72C65.4867 259.527 63.476 252.997 54.4684 248.401C45.4607 243.806 30.5015 241.951 12.7274 254.125C12.7274 254.125 12.7274 246.95 19.4831 236.791C26.2389 226.633 37.1768 220.828 29.0538 214.378C20.9308 207.928 3.4784 213.33 -12.6872 239.291C-10.5961 217.845 -15.1804 194.464 -21.6949 193.255C-27.6464 192.126 -31.7481 193.9 -34.0804 200.511V295.243L24.3087 289.116Z" fill="url(#paint0_linear)"/>
<path d="M63.7173 284.601C46.4258 281.537 30.984 278.957 20.207 277.345C4.60438 275.007 -14.0544 273.153 -34 273.798V300C-2.95565 295.405 28.2496 290.325 59.1331 285.327C60.6612 285.085 62.1892 284.843 63.7173 284.601Z" fill="#D5F6D6"/>
<path d="M72.8859 219.135C94.0732 219.135 111.249 201.917 111.249 180.677C111.249 159.438 94.0732 142.22 72.8859 142.22C51.6985 142.22 34.5228 159.438 34.5228 180.677C34.5228 201.917 51.6985 219.135 72.8859 219.135Z" fill="#417A3C"/>
<path d="M80.5263 167.536C68.1407 172.212 71.9207 184.789 61.2241 190.433C51.2513 195.673 38.6245 194.303 35.4879 171.809C34.8445 174.63 34.4423 177.614 34.4423 180.677C34.4423 201.962 51.6534 219.135 72.8054 219.135C92.3489 219.135 108.514 204.461 110.927 185.515C107.549 171.97 93.7966 162.537 80.5263 167.536Z" fill="#1B5739"/>
<path d="M57.2029 136.657C57.2029 136.657 57.605 133.835 54.3075 126.982C51.0101 120.21 51.1709 119.081 51.1709 119.081C42.8066 119.968 46.1041 126.66 44.7368 131.094C43.3696 135.528 37.9811 137.866 37.9811 137.866L52.6186 138.995L57.2029 136.657Z" fill="#417A3C"/>
<path d="M219.743 68.6913C219.743 68.6913 219.341 66.837 215.642 63.3702C211.942 59.9033 211.781 59.1777 211.781 59.1777C206.795 61.7577 210.414 65.1439 210.655 68.2076C210.816 71.2713 208.082 74.0931 208.082 74.0931L217.491 71.2713L219.743 68.6913Z" fill="#417A3C"/>
<path d="M242.021 117.065C256.235 117.065 267.758 105.515 267.758 91.2658C267.758 77.0171 256.235 65.4663 242.021 65.4663C227.808 65.4663 216.285 77.0171 216.285 91.2658C216.285 105.515 227.808 117.065 242.021 117.065Z" fill="#417A3C"/>
<path d="M243.63 81.2685C237.035 87.154 242.423 94.1683 237.115 100.215C232.129 105.939 223.926 108.116 216.607 94.8133C216.848 96.7482 217.331 98.6832 218.054 100.618C223.202 113.921 238.08 120.532 251.351 115.372C263.575 110.615 270.17 97.5545 267.034 85.1384C261.484 77.4792 250.707 74.8993 243.63 81.2685Z" fill="#1B5739"/>
<path d="M314.244 162.618L300.089 162.698L295.665 177.936L314.244 162.618Z" fill="#FFD1D1"/>
<path d="M166.582 80.3817C173.659 87.7184 190.147 89.4921 202.452 82.3166C207.68 79.253 211.862 76.028 214.918 73.2868C219.1 69.4975 221.674 72.1581 221.674 72.1581L223.282 70.9487C223.282 70.9487 223.765 74.0124 219.743 78.2048C215.561 82.5585 209.449 88.2022 202.13 92.6365C187.895 101.344 161.354 92.5558 161.354 92.5558L166.582 80.3817Z" fill="url(#paint1_linear)"/>
<path d="M273.709 125.531C254.97 106.746 234.059 96.3453 182.828 112.792C182.828 112.792 170.281 85.8642 165.697 79.0112C161.113 72.1582 154.116 73.7707 143.017 76.0282C139.72 77.0763 136.664 78.4469 133.768 79.9787C134.331 82.3168 135.618 86.9123 138.755 93.8459C142.776 102.876 138.996 116.662 137.87 120.29C145.43 132.626 154.598 148.912 158.861 161.812C166.26 184.305 165.456 204.3 145.591 277.264C144.384 281.537 147.441 280.973 146.073 285.649L154.759 284.037L157.011 282.908C157.011 282.908 159.826 276.136 172.614 242.677C185.402 209.138 198.511 188.175 192.157 143.51C220.869 127.143 254.166 128.272 271.135 145.284C288.105 162.295 295.665 178.017 295.665 178.017L300.089 162.698C300.089 162.698 292.448 144.316 273.709 125.531Z" fill="url(#paint2_linear)"/>
<path d="M134.09 79.8979C122.509 86.106 113.26 96.3451 97.657 109.567C86.2365 119.323 71.4382 128.353 61.2241 134.158C54.1466 138.189 52.3773 140.93 52.3773 140.93L54.7096 144.639C54.7096 144.639 58.0875 146.09 65.6475 142.704C79.8829 136.334 104.252 123.435 126.289 102.392C126.289 102.392 131.999 110.535 138.755 121.661C147.038 112.228 146.315 101.102 134.09 79.8979Z" fill="url(#paint3_linear)"/>
<path d="M271.538 137.302C258.187 118.759 235.346 118.194 225.132 123.112C217.974 126.579 203.578 133.352 186.286 124.967C186.286 124.967 191.031 135.931 192.077 143.51C220.789 127.144 254.085 128.272 271.055 145.284C288.025 162.295 295.585 178.017 295.585 178.017L297.998 169.551C290.92 163.585 281.349 151.008 271.538 137.302Z" fill="url(#paint4_linear)"/>
<path d="M145.752 284.924L146.797 285.085L144.626 280.57L145.752 284.924Z" fill="url(#paint5_linear)"/>
<path d="M145.752 276.458L144.626 280.57L145.752 276.458Z" fill="#94CC3A"/>
<path d="M159.263 74.4153C159.504 74.496 158.378 74.496 158.62 74.5766C154.438 73.3672 150.255 74.5766 143.098 76.0278C141.569 76.5115 140.202 77.0759 138.835 77.6403L148.727 94.8131L166.099 87.1538L159.263 74.4153Z" fill="url(#paint6_linear)"/>
<path d="M169.477 85.6222C168.914 84.5741 168.351 83.6066 167.869 82.7197C168.351 83.6066 168.914 84.5741 169.477 85.6222Z" fill="#079C00"/>
<path d="M147.521 84.6546C152.668 86.7508 155.724 84.8964 157.735 83.1227C159.826 81.2684 160.469 79.1722 159.746 76.2697C159.585 75.5441 159.424 74.8991 159.263 74.4154C155.161 73.4479 149.853 74.6572 143.017 76.0278C141.489 76.5116 140.122 77.0759 138.755 77.6403C138.755 77.6403 142.454 82.5583 147.521 84.6546Z" fill="url(#paint7_linear)"/>
<path d="M154.116 126.176C149.451 121.661 145.912 117.629 143.258 114.082C142.374 116.823 140.765 119.323 138.674 121.661C146.073 133.754 154.759 149.395 158.861 161.811C166.18 184.144 165.456 204.138 145.832 276.458L145.912 276.297L153.875 281.053C153.794 249.288 163.526 225.342 170.281 200.51C177.681 173.179 173.659 144.961 154.116 126.176Z" fill="url(#paint8_linear)"/>
<path d="M143.258 114.082C134.653 102.714 134.733 96.2642 134.733 96.2642C134.733 96.2642 132.723 96.5867 126.208 102.392C126.208 102.392 131.918 110.535 138.674 121.661C140.765 119.322 142.293 116.823 143.258 114.082Z" fill="url(#paint9_linear)"/>
<path d="M155.885 83.6065C161.837 80.0591 159.665 74.4155 153.794 65.1438C150.416 59.742 145.269 54.5821 139.881 52.0827C136.02 50.309 136.261 52.0827 132.642 54.0983C128.138 56.5977 125.324 59.5001 128.541 64.4988C131.436 69.0137 135.698 73.5286 138.272 76.1892C143.741 81.9134 149.451 87.3958 155.885 83.6065Z" fill="#F6B398"/>
<path d="M136.821 52.4577L135.582 53.835L141.555 59.2335L142.794 57.8563L136.821 52.4577Z" fill="#FF5959"/>
<path d="M145.189 62.2411C145.722 62.2411 146.154 61.808 146.154 61.2736C146.154 60.7393 145.722 60.3062 145.189 60.3062C144.656 60.3062 144.224 60.7393 144.224 61.2736C144.224 61.808 144.656 62.2411 145.189 62.2411Z" fill="#FF5959"/>
<path d="M214.918 73.2869L219.824 78.2855C223.845 74.0931 226.177 71.0294 226.177 71.0294L221.352 66.7563C221.271 66.7563 219.1 69.5782 214.918 73.2869Z" fill="#F6B398"/>
<path d="M164.169 287.181L145.832 276.297L142.856 287.181H164.169Z" fill="#FFD1D1"/>
<path d="M153.955 287.181C153.875 285.085 153.794 283.069 153.794 281.054L145.832 276.297L145.752 276.458L144.626 280.57L142.776 287.181H153.955Z" fill="#FF5959"/>
<path d="M302.421 172.373C301.134 171.809 299.687 170.841 298.158 169.551L295.746 178.017L302.421 172.373Z" fill="#FF5959"/>
<path d="M182.747 50.6315C196.695 50.6315 208.001 39.2973 208.001 25.3158C208.001 11.3343 196.695 0 182.747 0C168.8 0 157.494 11.3343 157.494 25.3158C157.494 39.2973 168.8 50.6315 182.747 50.6315Z" fill="url(#paint10_linear)"/>
<path d="M166.099 41.1182L161.354 52.1636L173.74 45.9556L166.099 41.1182Z" fill="url(#paint11_linear)"/>
<path d="M139.881 52.0829C139.318 51.841 138.755 51.5992 138.352 51.5186L127.415 62.0802C127.656 62.8058 127.978 63.6927 128.541 64.5796C130.551 67.6433 133.205 70.7876 135.457 73.2869C138.192 70.2232 132.079 65.3052 135.296 63.0477C138.433 60.7903 137.146 57.5653 138.433 55.5497C139.559 53.776 141.007 54.5016 142.374 53.5341C141.57 52.9698 140.765 52.486 139.881 52.0829Z" fill="#FF5959"/>
<path d="M128.782 64.8213L129.023 64.5794L135.538 55.3077L140.041 52.4053L140.202 52.1634C136.261 50.2284 132.079 49.8253 128.38 51.8409C123.795 54.5015 125.404 59.6614 128.782 64.8213Z" fill="url(#paint12_linear)"/>
<path d="M140.202 52.2443L140.041 43.6175C140.202 40.0701 138.031 37.4901 135.216 37.9739C132.401 38.4576 129.908 41.7632 129.747 45.3106L128.782 64.8215L140.202 52.2443Z" fill="url(#paint13_linear)"/>
<path d="M168.673 89.8148C169.384 89.8148 169.96 89.2373 169.96 88.5249C169.96 87.8124 169.384 87.2349 168.673 87.2349C167.962 87.2349 167.386 87.8124 167.386 88.5249C167.386 89.2373 167.962 89.8148 168.673 89.8148Z" fill="#1B5739"/>
<path d="M146.717 99.328C147.427 99.328 148.004 98.7504 148.004 98.038C148.004 97.3256 147.427 96.748 146.717 96.748C146.006 96.748 145.43 97.3256 145.43 98.038C145.43 98.7504 146.006 99.328 146.717 99.328Z" fill="#1B5739"/>
<path d="M219.502 70.6263L221.995 67.4014L221.191 66.6758C221.191 66.6758 219.985 68.2076 217.733 70.4651C217.894 74.1738 219.261 76.1087 221.915 75.7862C222.397 75.3025 222.8 74.7381 223.202 74.335L219.502 70.6263Z" fill="#FF5959"/>
<path d="M177.6 35.0715C179.777 35.0715 181.541 33.3028 181.541 31.121C181.541 28.9391 179.777 27.1704 177.6 27.1704C175.424 27.1704 173.659 28.9391 173.659 31.121C173.659 33.3028 175.424 35.0715 177.6 35.0715Z" fill="white"/>
<path d="M187.332 17.334C188.779 18.7046 192.157 22.1714 192.157 22.1714" stroke="white" stroke-width="2.9127" stroke-miterlimit="10"/>
<path d="M180.094 32.33C180.094 32.33 188.699 14.1091 189.021 13.3029C189.342 12.5772 190.227 13.706 194.329 17.7371" stroke="white" stroke-width="2.9127" stroke-miterlimit="10"/>
<path d="M61.1437 134.158C54.0662 138.189 49.2407 140.608 49.2407 140.608L53.2619 147.622C53.2619 147.622 58.0071 146.009 65.5671 142.623L61.1437 134.158Z" fill="#F6B398"/>
<path d="M61.6263 137.463C59.9373 135.286 57.2028 136.415 57.2028 136.415C52.2968 139.076 49.2407 140.688 49.2407 140.688L49.8036 141.736L57.042 138.028L60.4199 144.961C60.822 144.8 61.2241 144.639 61.6263 144.477C61.6263 144.397 63.3152 139.64 61.6263 137.463Z" fill="#FF5959"/>
<path d="M15.7836 215.506C17.1508 220.586 18.7593 225.423 20.7699 230.019C22.7806 234.614 25.2738 238.968 28.33 242.757L28.893 243.483L29.5364 244.128C29.9385 244.611 30.3406 245.095 30.7427 245.498L32.0296 246.788C32.5121 247.191 32.9142 247.594 33.3968 247.998C35.2466 249.61 37.1768 251.061 39.3483 252.351C43.6109 254.931 48.356 256.705 53.3424 258.237C48.1147 258.64 42.6458 257.834 37.6594 255.657L35.8096 254.77C35.1662 254.447 34.6032 254.125 34.0402 253.802L33.1555 253.319L32.2708 252.754C31.7079 252.351 31.1449 252.029 30.5819 251.545C28.4104 249.852 26.4802 247.917 24.7108 245.74C21.2525 241.467 18.8397 236.468 17.3116 231.309C15.864 226.149 15.1401 220.747 15.7836 215.506Z" fill="#FFD1D1"/>
<path d="M295.907 123.999C300.813 124.725 305.558 126.579 309.981 128.917C314.405 131.336 318.506 134.399 322.045 138.028C322.93 138.914 323.734 139.962 324.538 140.93C325.342 141.978 326.066 142.946 326.79 144.074C328.157 146.251 329.444 148.509 330.329 150.927C332.259 155.684 332.983 160.844 332.5 165.843C331.053 161.086 329.364 156.571 327.031 152.54C326.468 151.492 325.825 150.524 325.182 149.557C324.538 148.589 323.895 147.622 323.171 146.735C321.804 144.881 320.276 143.107 318.667 141.414C315.45 138.028 311.831 134.964 308.051 132.142C304.271 129.159 300.169 126.579 295.907 123.999Z" fill="#FFD1D1"/>
</g>
<defs>
<linearGradient id="paint0_linear" x1="-139.757" y1="244.136" x2="63.519" y2="244.136" gradientUnits="userSpaceOnUse">
<stop stop-color="#84BB53"/>
<stop offset="1" stop-color="#A7D55E"/>
</linearGradient>
<linearGradient id="paint1_linear" x1="208.706" y1="76.9961" x2="177.659" y2="89.341" gradientUnits="userSpaceOnUse">
<stop stop-color="#45C33F"/>
<stop offset="1" stop-color="#0C7D06"/>
</linearGradient>
<linearGradient id="paint2_linear" x1="216.957" y1="267.385" x2="216.957" y2="78.6677" gradientUnits="userSpaceOnUse">
<stop stop-color="#94CC3A"/>
<stop offset="1" stop-color="#A7D55E"/>
</linearGradient>
<linearGradient id="paint3_linear" x1="97.1743" y1="130.422" x2="119.184" y2="33.9725" gradientUnits="userSpaceOnUse">
<stop stop-color="#079C00"/>
<stop offset="1" stop-color="#83D77F"/>
</linearGradient>
<linearGradient id="paint4_linear" x1="242.2" y1="80.8243" x2="242.2" y2="289.298" gradientUnits="userSpaceOnUse">
<stop stop-color="#94CC3A"/>
<stop offset="1" stop-color="#196316"/>
</linearGradient>
<linearGradient id="paint5_linear" x1="145.728" y1="192.949" x2="145.728" y2="285.082" gradientUnits="userSpaceOnUse">
<stop stop-color="#FF582E"/>
<stop offset="1" stop-color="#FF4E21"/>
</linearGradient>
<linearGradient id="paint6_linear" x1="138.797" y1="142.272" x2="161.685" y2="41.9758" gradientUnits="userSpaceOnUse">
<stop stop-color="#079C00"/>
<stop offset="1" stop-color="#83D77F"/>
</linearGradient>
<linearGradient id="paint7_linear" x1="138.761" y1="79.8257" x2="160.08" y2="79.8257" gradientUnits="userSpaceOnUse">
<stop stop-color="#45C33F"/>
<stop offset="1" stop-color="#0C7D06"/>
</linearGradient>
<linearGradient id="paint8_linear" x1="156.196" y1="81.2201" x2="156.196" y2="290.791" gradientUnits="userSpaceOnUse">
<stop stop-color="#94CC3A"/>
<stop offset="1" stop-color="#196316"/>
</linearGradient>
<linearGradient id="paint9_linear" x1="141.318" y1="117.856" x2="130.376" y2="99.2833" gradientUnits="userSpaceOnUse">
<stop stop-color="#45C33F"/>
<stop offset="1" stop-color="#0C7D06"/>
</linearGradient>
<linearGradient id="paint10_linear" x1="199.138" y1="6.19858" x2="166.474" y2="44.1468" gradientUnits="userSpaceOnUse">
<stop stop-color="#3AB287"/>
<stop offset="1" stop-color="#056C46"/>
</linearGradient>
<linearGradient id="paint11_linear" x1="200.721" y1="7.56114" x2="168.056" y2="45.5093" gradientUnits="userSpaceOnUse">
<stop stop-color="#3AB287"/>
<stop offset="1" stop-color="#056C46"/>
</linearGradient>
<linearGradient id="paint12_linear" x1="119.638" y1="41.3733" x2="127.145" y2="50.0006" gradientUnits="userSpaceOnUse">
<stop stop-color="#45C33F"/>
<stop offset="0.1262" stop-color="#0C7D06"/>
</linearGradient>
<linearGradient id="paint13_linear" x1="134.475" y1="54.7004" x2="133.249" y2="39.6936" gradientUnits="userSpaceOnUse">
<stop stop-color="#079C00"/>
<stop offset="1" stop-color="#ACE4A9"/>
</linearGradient>
<clipPath id="clip0">
<rect x="-34" width="408" height="300" fill="white"/>
</clipPath>
</defs>
</svg>
